<svg version="1.2" xmlns="http://www.w3.org/2000/svg" viewBox="0 0 203 50" width="100" height="25">
	<title>FYCLogo-svg</title>
	<style>
		.s0 { fill: #ffffff } 
	</style>
	<g id="g10">
		<g id="g12">
			<path id="path14" class="s0" d="m114.8 10.4c-0.3-2.2 0.8-4.6 2.1-6 1.4-1.7 3.8-2.9 5.8-3 0.2 2.3-0.7 4.6-2.1 6.2-1.4 1.7-3.6 3-5.8 2.8z"/>
			<path id="path16" class="s0" d="m129.8 14.7c-0.2 0.1-4.3 2.5-4.2 7.4 0 5.9 5.2 7.9 5.2 8 0 0.1-0.8 2.7-2.7 5.5-1.6 2.4-3.3 4.7-6 4.8-2.6 0-3.5-1.6-6.4-1.6-3 0-4 1.5-6.4 1.6-2.6 0.1-4.6-2.5-6.2-4.9-3.4-4.9-6-13.7-2.5-19.6 1.7-3 4.8-4.9 8.1-4.9 2.5-0.1 4.9 1.6 6.4 1.6 1.6 0 4.3-2 7.5-1.8 1.3 0.1 4.9 0.5 7.2 3.9z"/>
			<path id="path18" class="s0" d="m143.2 6.3v6.5h5.2v4.3h-5.2v15.3c0 2.4 1 3.5 3.3 3.5 0.6 0 1.5-0.1 1.9-0.2v4.4c-0.6 0.1-1.9 0.2-3.1 0.2-5.4 0-7.6-2.1-7.6-7.3v-15.9h-4v-4.3h4v-6.5z"/>
			<path id="path20" class="s0" d="m166.8 40.1h-5.8l-9.7-27.3h5.8l6.8 21.9h0.1l6.8-21.9h5.7z"/>
			<path id="path22" class="s0" d="m192.2 40.1h-5v-11.2h-10.7v-4.9h10.7v-11.2h5v11.2h10.7v4.9h-10.7z"/>
			<path id="path24" class="s0" d="m3.8 17.1h-3.8v-4.5h3.8v-2.7c0-5.3 2.5-7.8 8.1-7.8 1.2 0 2.5 0.1 3.2 0.2v4.2c-0.5-0.1-1.3-0.1-2-0.1-2.5 0-3.7 1.2-3.7 3.6v2.6h5.6v4.5h-5.5v23h-5.7z"/>
			<path id="path26" class="s0" d="m20.4 49.7v-4.5c0.4 0.1 1.4 0.1 1.8 0.1 2.6 0 4-1.1 4.9-3.9 0 0 0.4-1.6 0.4-1.7l-9.7-27h6l6.8 22h0.1l6.9-22h5.9l-10.2 28.4c-2.3 6.6-5 8.7-10.6 8.7-0.5 0-1.9-0.1-2.3-0.1z"/>
			<path id="path28" class="s0" d="m62.8 21.9c-0.6-2.9-2.8-5.2-6.4-5.2-4.3 0-7.1 3.6-7.1 9.4 0 5.9 2.9 9.4 7.2 9.4 3.4 0 5.6-1.9 6.3-5h5.4c-0.7 5.7-5.3 9.6-11.8 9.6-7.7 0-12.8-5.3-12.8-14 0-8.6 5.1-14 12.8-14 7 0 11.2 4.5 11.7 9.8z"/>
			<path id="path30" class="s0" d="m85.7 47.7h-3.4v-47.7h3.4z"/>
		</g>
	</g>
</svg>